<svg width="207" height="68" viewBox="0 0 207 68" fill="none" xmlns="http://www.w3.org/2000/svg">
<rect width="207" height="67.9999" rx="10" fill="#4BA036"/>
<path d="M68.7902 34V23.8182H70.9429V32.2251H75.308V34H68.7902ZM80.1441 34.1491C79.3718 34.1491 78.704 33.9851 78.1405 33.657C77.5804 33.3255 77.1479 32.8648 76.843 32.2749C76.538 31.6816 76.3856 30.9938 76.3856 30.2116C76.3856 29.4228 76.538 28.7334 76.843 28.1435C77.1479 27.5502 77.5804 27.0895 78.1405 26.7614C78.704 26.4299 79.3718 26.2642 80.1441 26.2642C80.9163 26.2642 81.5825 26.4299 82.1427 26.7614C82.7061 27.0895 83.1403 27.5502 83.4452 28.1435C83.7501 28.7334 83.9026 29.4228 83.9026 30.2116C83.9026 30.9938 83.7501 31.6816 83.4452 32.2749C83.1403 32.8648 82.7061 33.3255 82.1427 33.657C81.5825 33.9851 80.9163 34.1491 80.1441 34.1491ZM80.154 32.5085C80.5054 32.5085 80.7987 32.4091 81.034 32.2102C81.2693 32.008 81.4466 31.733 81.566 31.3849C81.6886 31.0369 81.7499 30.6409 81.7499 30.1967C81.7499 29.7526 81.6886 29.3565 81.566 29.0085C81.4466 28.6605 81.2693 28.3854 81.034 28.1832C80.7987 27.9811 80.5054 27.88 80.154 27.88C79.7994 27.88 79.5011 27.9811 79.2591 28.1832C79.0205 28.3854 78.8399 28.6605 78.7172 29.0085C78.5979 29.3565 78.5383 29.7526 78.5383 30.1967C78.5383 30.6409 78.5979 31.0369 78.7172 31.3849C78.8399 31.733 79.0205 32.008 79.2591 32.2102C79.5011 32.4091 79.7994 32.5085 80.154 32.5085ZM88.7201 37.0227C88.034 37.0227 87.4457 36.9283 86.9552 36.7393C86.468 36.5537 86.0802 36.3002 85.7918 35.9787C85.5035 35.6572 85.3162 35.2959 85.23 34.8949L87.1888 34.6314C87.2485 34.7839 87.343 34.9264 87.4722 35.0589C87.6015 35.1915 87.7722 35.2976 87.9843 35.3771C88.1997 35.46 88.4616 35.5014 88.7698 35.5014C89.2305 35.5014 89.61 35.3887 89.9083 35.1634C90.2099 34.9413 90.3607 34.5684 90.3607 34.0447V32.6477H90.2712C90.1784 32.8598 90.0392 33.0604 89.8536 33.2493C89.668 33.4382 89.4294 33.5923 89.1377 33.7116C88.846 33.831 88.498 33.8906 88.0937 33.8906C87.5203 33.8906 86.9983 33.758 86.5276 33.4929C86.0603 33.2244 85.6874 32.8151 85.409 32.2649C85.1339 31.7114 84.9964 31.0121 84.9964 30.1669C84.9964 29.3018 85.1372 28.5793 85.4189 27.9993C85.7007 27.4193 86.0752 26.9851 86.5425 26.6967C87.0132 26.4084 87.5286 26.2642 88.0887 26.2642C88.5162 26.2642 88.8742 26.3371 89.1626 26.483C89.4509 26.6255 89.6829 26.8045 89.8586 27.0199C90.0376 27.232 90.1751 27.4408 90.2712 27.6463H90.3508V26.3636H92.4537V34.0746C92.4537 34.7242 92.2947 35.2678 91.9765 35.7053C91.6583 36.1428 91.2175 36.4709 90.654 36.6896C90.0939 36.9117 89.4492 37.0227 88.7201 37.0227ZM88.7648 32.2997C89.1062 32.2997 89.3946 32.2152 89.6299 32.0462C89.8685 31.8738 90.0508 31.6286 90.1768 31.3104C90.306 30.9889 90.3706 30.6044 90.3706 30.157C90.3706 29.7095 90.3077 29.3217 90.1817 28.9936C90.0558 28.6622 89.8735 28.4053 89.6349 28.223C89.3962 28.0407 89.1062 27.9496 88.7648 27.9496C88.4168 27.9496 88.1235 28.044 87.8849 28.233C87.6462 28.4186 87.4656 28.6771 87.343 29.0085C87.2203 29.34 87.159 29.7228 87.159 30.157C87.159 30.5978 87.2203 30.9789 87.343 31.3004C87.4689 31.6186 87.6495 31.8655 87.8849 32.0412C88.1235 32.2135 88.4168 32.2997 88.7648 32.2997ZM94.1391 34V26.3636H96.257V34H94.1391ZM95.203 25.3793C94.8882 25.3793 94.618 25.2749 94.3927 25.0661C94.1706 24.8539 94.0596 24.6004 94.0596 24.3054C94.0596 24.0137 94.1706 23.7635 94.3927 23.5547C94.618 23.3426 94.8882 23.2365 95.203 23.2365C95.5179 23.2365 95.7864 23.3426 96.0084 23.5547C96.2338 23.7635 96.3465 24.0137 96.3465 24.3054C96.3465 24.6004 96.2338 24.8539 96.0084 25.0661C95.7864 25.2749 95.5179 25.3793 95.203 25.3793ZM100.071 29.5852V34H97.9536V26.3636H99.972V27.7109H100.062C100.231 27.2668 100.514 26.9155 100.912 26.657C101.309 26.3951 101.792 26.2642 102.358 26.2642C102.889 26.2642 103.351 26.3802 103.745 26.6122C104.14 26.8442 104.446 27.1757 104.665 27.6065C104.884 28.0341 104.993 28.5445 104.993 29.1378V34H102.875V29.5156C102.879 29.0483 102.759 28.6837 102.517 28.4219C102.276 28.1567 101.942 28.0241 101.518 28.0241C101.233 28.0241 100.981 28.0855 100.763 28.2081C100.547 28.3307 100.378 28.5097 100.255 28.745C100.136 28.977 100.075 29.2571 100.071 29.5852ZM109.943 34V23.8182H112.06V27.6463H112.125C112.218 27.4408 112.352 27.232 112.528 27.0199C112.707 26.8045 112.939 26.6255 113.224 26.483C113.512 26.3371 113.87 26.2642 114.298 26.2642C114.854 26.2642 115.368 26.41 115.839 26.7017C116.31 26.9901 116.686 27.4259 116.967 28.0092C117.249 28.5893 117.39 29.3168 117.39 30.1918C117.39 31.0436 117.252 31.7628 116.977 32.3494C116.706 32.9328 116.334 33.3752 115.864 33.6768C115.396 33.9751 114.873 34.1243 114.293 34.1243C113.882 34.1243 113.532 34.0563 113.244 33.9205C112.959 33.7846 112.725 33.6139 112.543 33.4084C112.36 33.1996 112.221 32.9891 112.125 32.777H112.031V34H109.943ZM112.016 30.1818C112.016 30.6359 112.079 31.032 112.205 31.37C112.331 31.7081 112.513 31.9716 112.752 32.1605C112.99 32.3461 113.28 32.4389 113.622 32.4389C113.966 32.4389 114.258 32.3445 114.497 32.1555C114.735 31.9633 114.916 31.6982 115.038 31.3601C115.164 31.0187 115.227 30.6259 115.227 30.1818C115.227 29.741 115.166 29.3532 115.043 29.0185C114.921 28.6837 114.74 28.4219 114.502 28.233C114.263 28.044 113.97 27.9496 113.622 27.9496C113.277 27.9496 112.985 28.0407 112.747 28.223C112.511 28.4053 112.331 28.6638 112.205 28.9986C112.079 29.3333 112.016 29.7277 112.016 30.1818ZM122.283 34.1491C121.498 34.1491 120.822 33.9901 120.255 33.6719C119.691 33.3504 119.257 32.8963 118.952 32.3097C118.647 31.7197 118.495 31.022 118.495 30.2166C118.495 29.4311 118.647 28.7417 118.952 28.1484C119.257 27.5552 119.686 27.0928 120.24 26.7614C120.797 26.4299 121.45 26.2642 122.199 26.2642C122.703 26.2642 123.172 26.3454 123.606 26.5078C124.043 26.6669 124.424 26.9072 124.749 27.2287C125.077 27.5502 125.333 27.9545 125.515 28.4418C125.697 28.9257 125.788 29.4924 125.788 30.142V30.7237H119.34V29.4112H123.795C123.795 29.1063 123.728 28.8362 123.596 28.6009C123.463 28.3655 123.279 28.1816 123.044 28.049C122.812 27.9131 122.542 27.8452 122.234 27.8452C121.912 27.8452 121.627 27.9197 121.378 28.0689C121.133 28.2147 120.941 28.4119 120.802 28.6605C120.663 28.9058 120.591 29.1792 120.588 29.4808V30.7287C120.588 31.1065 120.658 31.433 120.797 31.7081C120.939 31.9832 121.14 32.1953 121.398 32.3445C121.657 32.4936 121.963 32.5682 122.318 32.5682C122.553 32.5682 122.769 32.535 122.964 32.4688C123.16 32.4025 123.327 32.303 123.467 32.1705C123.606 32.0379 123.712 31.8755 123.785 31.6832L125.744 31.8125C125.644 32.2831 125.44 32.6941 125.132 33.0455C124.827 33.3935 124.433 33.6652 123.949 33.8608C123.468 34.053 122.913 34.1491 122.283 34.1491ZM127.17 34V26.3636H129.189V27.7109H129.278C129.437 27.2635 129.703 26.9105 130.074 26.652C130.445 26.3935 130.889 26.2642 131.406 26.2642C131.93 26.2642 132.376 26.3951 132.744 26.657C133.111 26.9155 133.357 27.2668 133.479 27.7109H133.559C133.715 27.2734 133.996 26.9238 134.404 26.6619C134.815 26.3968 135.301 26.2642 135.861 26.2642C136.573 26.2642 137.152 26.4912 137.596 26.9453C138.043 27.3961 138.267 28.0357 138.267 28.8643V34H136.154V29.282C136.154 28.8577 136.041 28.5395 135.816 28.3274C135.591 28.1153 135.309 28.0092 134.971 28.0092C134.586 28.0092 134.286 28.1319 134.071 28.3771C133.855 28.6191 133.748 28.9389 133.748 29.3366V34H131.695V29.2372C131.695 28.8627 131.587 28.5644 131.371 28.3423C131.159 28.1203 130.879 28.0092 130.531 28.0092C130.296 28.0092 130.084 28.0689 129.895 28.1882C129.709 28.3042 129.562 28.4683 129.452 28.6804C129.343 28.8892 129.288 29.1345 129.288 29.4162V34H127.17ZM79.0211 45.5412L77.0822 45.6605C77.0491 45.4948 76.9778 45.3456 76.8684 45.2131C76.7591 45.0772 76.6149 44.9695 76.4359 44.8899C76.2602 44.8071 76.0498 44.7656 75.8045 44.7656C75.4764 44.7656 75.1996 44.8352 74.9743 44.9744C74.7489 45.1103 74.6362 45.2926 74.6362 45.5213C74.6362 45.7036 74.7091 45.8577 74.8549 45.9837C75.0008 46.1096 75.251 46.2107 75.6056 46.2869L76.9877 46.5653C77.7302 46.7178 78.2837 46.9631 78.6483 47.3011C79.0128 47.6392 79.1951 48.0833 79.1951 48.6335C79.1951 49.134 79.0476 49.5732 78.7527 49.951C78.461 50.3288 78.06 50.6238 77.5495 50.8359C77.0424 51.0447 76.4574 51.1491 75.7946 51.1491C74.7837 51.1491 73.9783 50.9387 73.3784 50.5178C72.7818 50.0935 72.4321 49.5168 72.3294 48.7876L74.4125 48.6783C74.4754 48.9865 74.6279 49.2218 74.8699 49.3842C75.1118 49.5433 75.4217 49.6229 75.7995 49.6229C76.1708 49.6229 76.469 49.5516 76.6944 49.4091C76.9231 49.2633 77.0391 49.076 77.0424 48.8473C77.0391 48.6551 76.9579 48.4976 76.7988 48.375C76.6397 48.2491 76.3945 48.1529 76.063 48.0866L74.7406 47.8232C73.9949 47.674 73.4397 47.4155 73.0751 47.0476C72.7138 46.6797 72.5332 46.2107 72.5332 45.6406C72.5332 45.1501 72.6658 44.7275 72.9309 44.3729C73.1994 44.0182 73.5756 43.7448 74.0595 43.5526C74.5467 43.3603 75.1168 43.2642 75.7697 43.2642C76.7342 43.2642 77.4932 43.468 78.0467 43.8757C78.6035 44.2834 78.9283 44.8385 79.0211 45.5412ZM85.4258 47.7486V43.3636H87.5437V51H85.5103V49.6129H85.4308C85.2584 50.0604 84.9717 50.42 84.5707 50.6918C84.1729 50.9635 83.6874 51.0994 83.114 51.0994C82.6036 51.0994 82.1545 50.9834 81.7667 50.7514C81.3789 50.5194 81.0756 50.1896 80.8569 49.7621C80.6415 49.3345 80.5321 48.8224 80.5288 48.2259V43.3636H82.6467V47.848C82.65 48.2988 82.771 48.6551 83.0096 48.9169C83.2482 49.1787 83.5681 49.3097 83.9691 49.3097C84.2243 49.3097 84.463 49.2517 84.685 49.1357C84.9071 49.0163 85.0861 48.8407 85.2219 48.6087C85.3612 48.3767 85.4291 48.09 85.4258 47.7486ZM92.688 51.1491C91.9058 51.1491 91.233 50.9834 90.6696 50.652C90.1094 50.3172 89.6786 49.8532 89.377 49.2599C89.0787 48.6667 88.9295 47.9839 88.9295 47.2116C88.9295 46.4295 89.0803 45.7434 89.3819 45.1534C89.6868 44.5601 90.1194 44.0978 90.6795 43.7663C91.2396 43.4316 91.9058 43.2642 92.6781 43.2642C93.3443 43.2642 93.9276 43.3852 94.4281 43.6271C94.9286 43.8691 95.3246 44.2088 95.6163 44.6463C95.908 45.0838 96.0687 45.5975 96.0985 46.1875H94.1C94.0436 45.8063 93.8945 45.4998 93.6525 45.2678C93.4139 45.0324 93.1007 44.9148 92.7129 44.9148C92.3848 44.9148 92.0981 45.0043 91.8528 45.1832C91.6109 45.3589 91.4219 45.6158 91.286 45.9538C91.1502 46.2919 91.0822 46.7012 91.0822 47.1818C91.0822 47.669 91.1485 48.0833 91.2811 48.4247C91.417 48.7661 91.6075 49.0263 91.8528 49.2053C92.0981 49.3842 92.3848 49.4737 92.7129 49.4737C92.9548 49.4737 93.1719 49.424 93.3642 49.3246C93.5597 49.2251 93.7205 49.081 93.8464 48.892C93.9757 48.6998 94.0602 48.4695 94.1 48.201H96.0985C96.0654 48.7843 95.9063 49.2981 95.6213 49.7422C95.3395 50.183 94.9501 50.5277 94.4529 50.7763C93.9558 51.0249 93.3675 51.1491 92.688 51.1491ZM100.935 51.1491C100.149 51.1491 99.473 50.9901 98.9062 50.6719C98.3428 50.3504 97.9086 49.8963 97.6037 49.3097C97.2988 48.7197 97.1463 48.022 97.1463 47.2166C97.1463 46.4311 97.2988 45.7417 97.6037 45.1484C97.9086 44.5552 98.3378 44.0928 98.8913 43.7614C99.4482 43.4299 100.101 43.2642 100.85 43.2642C101.354 43.2642 101.823 43.3454 102.257 43.5078C102.695 43.6669 103.076 43.9072 103.401 44.2287C103.729 44.5502 103.984 44.9545 104.166 45.4418C104.348 45.9257 104.44 46.4924 104.44 47.142V47.7237H97.9915V46.4112H102.446C102.446 46.1063 102.38 45.8362 102.247 45.6009C102.115 45.3655 101.931 45.1816 101.695 45.049C101.463 44.9131 101.193 44.8452 100.885 44.8452C100.563 44.8452 100.278 44.9197 100.03 45.0689C99.7846 45.2147 99.5923 45.4119 99.4531 45.6605C99.3139 45.9058 99.2427 46.1792 99.2393 46.4808V47.7287C99.2393 48.1065 99.3089 48.433 99.4482 48.7081C99.5907 48.9832 99.7912 49.1953 100.05 49.3445C100.308 49.4936 100.615 49.5682 100.969 49.5682C101.205 49.5682 101.42 49.535 101.616 49.4688C101.811 49.4025 101.979 49.303 102.118 49.1705C102.257 49.0379 102.363 48.8755 102.436 48.6832L104.395 48.8125C104.295 49.2831 104.092 49.6941 103.783 50.0455C103.478 50.3935 103.084 50.6652 102.6 50.8608C102.12 51.053 101.564 51.1491 100.935 51.1491ZM108.636 51.1243C108.056 51.1243 107.53 50.9751 107.06 50.6768C106.592 50.3752 106.221 49.9328 105.946 49.3494C105.674 48.7628 105.538 48.0436 105.538 47.1918C105.538 46.3168 105.679 45.5893 105.961 45.0092C106.243 44.4259 106.617 43.9901 107.085 43.7017C107.555 43.41 108.071 43.2642 108.631 43.2642C109.058 43.2642 109.415 43.3371 109.7 43.483C109.988 43.6255 110.22 43.8045 110.396 44.0199C110.575 44.232 110.71 44.4408 110.803 44.6463H110.868V40.8182H112.981V51H110.893V49.777H110.803C110.704 49.9891 110.563 50.1996 110.381 50.4084C110.202 50.6139 109.968 50.7846 109.68 50.9205C109.395 51.0563 109.047 51.1243 108.636 51.1243ZM109.307 49.4389C109.648 49.4389 109.937 49.3461 110.172 49.1605C110.411 48.9716 110.593 48.7081 110.719 48.37C110.848 48.032 110.913 47.6359 110.913 47.1818C110.913 46.7277 110.85 46.3333 110.724 45.9986C110.598 45.6638 110.415 45.4053 110.177 45.223C109.938 45.0407 109.648 44.9496 109.307 44.9496C108.959 44.9496 108.665 45.044 108.427 45.233C108.188 45.4219 108.008 45.6837 107.885 46.0185C107.762 46.3532 107.701 46.741 107.701 47.1818C107.701 47.6259 107.762 48.0187 107.885 48.3601C108.011 48.6982 108.192 48.9633 108.427 49.1555C108.665 49.3445 108.959 49.4389 109.307 49.4389ZM114.722 51V43.3636H116.84V51H114.722ZM115.786 42.3793C115.471 42.3793 115.201 42.2749 114.976 42.0661C114.754 41.8539 114.643 41.6004 114.643 41.3054C114.643 41.0137 114.754 40.7635 114.976 40.5547C115.201 40.3426 115.471 40.2365 115.786 40.2365C116.101 40.2365 116.369 40.3426 116.591 40.5547C116.817 40.7635 116.93 41.0137 116.93 41.3054C116.93 41.6004 116.817 41.8539 116.591 42.0661C116.369 42.2749 116.101 42.3793 115.786 42.3793ZM121.35 51.1243C120.77 51.1243 120.245 50.9751 119.775 50.6768C119.307 50.3752 118.936 49.9328 118.661 49.3494C118.389 48.7628 118.253 48.0436 118.253 47.1918C118.253 46.3168 118.394 45.5893 118.676 45.0092C118.958 44.4259 119.332 43.9901 119.799 43.7017C120.27 43.41 120.785 43.2642 121.346 43.2642C121.773 43.2642 122.129 43.3371 122.414 43.483C122.703 43.6255 122.935 43.8045 123.11 44.0199C123.289 44.232 123.425 44.4408 123.518 44.6463H123.583V40.8182H125.696V51H123.608V49.777H123.518C123.419 49.9891 123.278 50.1996 123.096 50.4084C122.917 50.6139 122.683 50.7846 122.395 50.9205C122.109 51.0563 121.761 51.1243 121.35 51.1243ZM122.022 49.4389C122.363 49.4389 122.651 49.3461 122.887 49.1605C123.125 48.9716 123.308 48.7081 123.434 48.37C123.563 48.032 123.627 47.6359 123.627 47.1818C123.627 46.7277 123.565 46.3333 123.439 45.9986C123.313 45.6638 123.13 45.4053 122.892 45.223C122.653 45.0407 122.363 44.9496 122.022 44.9496C121.674 44.9496 121.38 45.044 121.142 45.233C120.903 45.4219 120.722 45.6837 120.6 46.0185C120.477 46.3532 120.416 46.741 120.416 47.1818C120.416 47.6259 120.477 48.0187 120.6 48.3601C120.726 48.6982 120.906 48.9633 121.142 49.1555C121.38 49.3445 121.674 49.4389 122.022 49.4389ZM130.887 51.1491C130.115 51.1491 129.447 50.9851 128.884 50.657C128.324 50.3255 127.891 49.8648 127.586 49.2749C127.281 48.6816 127.129 47.9938 127.129 47.2116C127.129 46.4228 127.281 45.7334 127.586 45.1435C127.891 44.5502 128.324 44.0895 128.884 43.7614C129.447 43.4299 130.115 43.2642 130.887 43.2642C131.66 43.2642 132.326 43.4299 132.886 43.7614C133.449 44.0895 133.883 44.5502 134.188 45.1435C134.493 45.7334 134.646 46.4228 134.646 47.2116C134.646 47.9938 134.493 48.6816 134.188 49.2749C133.883 49.8648 133.449 50.3255 132.886 50.657C132.326 50.9851 131.66 51.1491 130.887 51.1491ZM130.897 49.5085C131.249 49.5085 131.542 49.4091 131.777 49.2102C132.012 49.008 132.19 48.733 132.309 48.3849C132.432 48.0369 132.493 47.6409 132.493 47.1967C132.493 46.7526 132.432 46.3565 132.309 46.0085C132.19 45.6605 132.012 45.3854 131.777 45.1832C131.542 44.9811 131.249 44.88 130.897 44.88C130.543 44.88 130.244 44.9811 130.002 45.1832C129.764 45.3854 129.583 45.6605 129.46 46.0085C129.341 46.3565 129.281 46.7526 129.281 47.1967C129.281 47.6409 129.341 48.0369 129.46 48.3849C129.583 48.733 129.764 49.008 130.002 49.2102C130.244 49.4091 130.543 49.5085 130.897 49.5085Z" fill="white"/>
</svg>
