<svg width="1178" height="467" viewBox="0 0 1178 467" fill="none" xmlns="http://www.w3.org/2000/svg">
<rect x="0.5" y="0.5" width="1177" height="466" fill="#F8F8F8" stroke="#A8A8A8"/>
<path d="M294.878 213.909L301.909 236.011H302.179L309.224 213.909H316.043L306.014 243H298.088L288.045 213.909H294.878ZM326.827 243.426C324.621 243.426 322.713 242.957 321.103 242.02C319.503 241.073 318.267 239.757 317.396 238.071C316.524 236.376 316.089 234.411 316.089 232.176C316.089 229.922 316.524 227.953 317.396 226.267C318.267 224.572 319.503 223.256 321.103 222.318C322.713 221.371 324.621 220.898 326.827 220.898C329.034 220.898 330.937 221.371 332.538 222.318C334.147 223.256 335.388 224.572 336.259 226.267C337.13 227.953 337.566 229.922 337.566 232.176C337.566 234.411 337.13 236.376 336.259 238.071C335.388 239.757 334.147 241.073 332.538 242.02C330.937 242.957 329.034 243.426 326.827 243.426ZM326.856 238.739C327.86 238.739 328.698 238.455 329.37 237.886C330.042 237.309 330.549 236.523 330.89 235.528C331.24 234.534 331.415 233.402 331.415 232.134C331.415 230.865 331.24 229.733 330.89 228.739C330.549 227.744 330.042 226.958 329.37 226.381C328.698 225.803 327.86 225.514 326.856 225.514C325.843 225.514 324.99 225.803 324.299 226.381C323.617 226.958 323.101 227.744 322.751 228.739C322.41 229.733 322.239 230.865 322.239 232.134C322.239 233.402 322.41 234.534 322.751 235.528C323.101 236.523 323.617 237.309 324.299 237.886C324.99 238.455 325.843 238.739 326.856 238.739ZM351.359 243.426C349.124 243.426 347.201 242.953 345.592 242.006C343.991 241.049 342.76 239.723 341.898 238.028C341.046 236.333 340.62 234.383 340.62 232.176C340.62 229.941 341.051 227.981 341.913 226.295C342.784 224.6 344.02 223.279 345.62 222.332C347.22 221.376 349.124 220.898 351.33 220.898C353.234 220.898 354.9 221.243 356.33 221.935C357.76 222.626 358.892 223.597 359.725 224.847C360.558 226.097 361.018 227.564 361.103 229.25H355.393C355.232 228.161 354.806 227.285 354.114 226.622C353.433 225.95 352.538 225.614 351.43 225.614C350.492 225.614 349.673 225.869 348.972 226.381C348.281 226.883 347.741 227.616 347.353 228.582C346.965 229.548 346.771 230.718 346.771 232.091C346.771 233.483 346.96 234.667 347.339 235.642C347.727 236.617 348.272 237.361 348.972 237.872C349.673 238.384 350.492 238.639 351.43 238.639C352.121 238.639 352.741 238.497 353.29 238.213C353.849 237.929 354.308 237.517 354.668 236.977C355.038 236.428 355.279 235.77 355.393 235.003H361.103C361.008 236.67 360.554 238.137 359.739 239.406C358.934 240.666 357.822 241.651 356.401 242.361C354.981 243.071 353.3 243.426 351.359 243.426ZM374.92 243.426C372.676 243.426 370.744 242.972 369.125 242.062C367.515 241.144 366.275 239.847 365.403 238.17C364.532 236.485 364.097 234.491 364.097 232.19C364.097 229.946 364.532 227.976 365.403 226.281C366.275 224.586 367.501 223.265 369.082 222.318C370.673 221.371 372.539 220.898 374.679 220.898C376.118 220.898 377.458 221.13 378.699 221.594C379.949 222.048 381.038 222.735 381.966 223.653C382.903 224.572 383.633 225.727 384.153 227.119C384.674 228.502 384.935 230.121 384.935 231.977V233.639H366.511V229.889H379.239C379.239 229.018 379.049 228.246 378.67 227.574C378.292 226.902 377.766 226.376 377.094 225.997C376.431 225.609 375.659 225.415 374.778 225.415C373.86 225.415 373.045 225.628 372.335 226.054C371.634 226.471 371.085 227.034 370.688 227.744C370.29 228.445 370.086 229.226 370.077 230.088V233.653C370.077 234.733 370.276 235.666 370.673 236.452C371.08 237.238 371.653 237.844 372.392 238.27C373.131 238.696 374.007 238.909 375.02 238.909C375.692 238.909 376.308 238.814 376.866 238.625C377.425 238.436 377.903 238.152 378.301 237.773C378.699 237.394 379.002 236.93 379.21 236.381L384.807 236.75C384.523 238.095 383.94 239.269 383.06 240.273C382.188 241.267 381.062 242.044 379.679 242.602C378.306 243.152 376.72 243.426 374.92 243.426ZM377.392 218.568L374.537 215.102L371.682 218.568H366.526V218.369L372.278 212.119H376.781L382.548 218.369V218.568H377.392ZM404.363 243.412C402.971 243.412 401.73 243.17 400.641 242.688C399.552 242.195 398.691 241.471 398.056 240.514C397.431 239.548 397.119 238.346 397.119 236.906C397.119 235.694 397.341 234.676 397.786 233.852C398.231 233.028 398.837 232.366 399.604 231.864C400.371 231.362 401.243 230.983 402.218 230.727C403.203 230.472 404.235 230.292 405.315 230.188C406.584 230.055 407.606 229.932 408.383 229.818C409.159 229.695 409.723 229.515 410.073 229.278C410.424 229.042 410.599 228.691 410.599 228.227V228.142C410.599 227.242 410.315 226.546 409.746 226.054C409.188 225.562 408.392 225.315 407.36 225.315C406.271 225.315 405.405 225.557 404.761 226.04C404.117 226.513 403.691 227.11 403.482 227.83L397.886 227.375C398.17 226.049 398.728 224.903 399.562 223.938C400.395 222.962 401.47 222.214 402.786 221.693C404.112 221.163 405.646 220.898 407.388 220.898C408.601 220.898 409.761 221.04 410.869 221.324C411.986 221.608 412.976 222.048 413.837 222.645C414.709 223.241 415.395 224.009 415.897 224.946C416.399 225.874 416.65 226.987 416.65 228.284V243H410.911V239.974H410.741C410.39 240.656 409.922 241.258 409.335 241.778C408.747 242.29 408.042 242.692 407.218 242.986C406.394 243.27 405.442 243.412 404.363 243.412ZM406.096 239.236C406.986 239.236 407.772 239.061 408.454 238.71C409.136 238.35 409.671 237.867 410.059 237.261C410.447 236.655 410.641 235.969 410.641 235.202V232.886C410.452 233.009 410.192 233.123 409.86 233.227C409.538 233.322 409.174 233.412 408.766 233.497C408.359 233.573 407.952 233.644 407.545 233.71C407.138 233.767 406.768 233.819 406.437 233.866C405.727 233.971 405.106 234.136 404.576 234.364C404.046 234.591 403.634 234.899 403.34 235.287C403.047 235.666 402.9 236.139 402.9 236.707C402.9 237.531 403.198 238.161 403.795 238.597C404.401 239.023 405.168 239.236 406.096 239.236ZM421.344 243V221.182H427.396V243H421.344ZM424.384 218.369C423.485 218.369 422.713 218.071 422.069 217.474C421.434 216.868 421.117 216.144 421.117 215.301C421.117 214.468 421.434 213.753 422.069 213.156C422.713 212.55 423.485 212.247 424.384 212.247C425.284 212.247 426.051 212.55 426.685 213.156C427.329 213.753 427.651 214.468 427.651 215.301C427.651 216.144 427.329 216.868 426.685 217.474C426.051 218.071 425.284 218.369 424.384 218.369ZM438.294 230.386V243H432.243V221.182H438.01V225.031H438.266C438.749 223.762 439.558 222.759 440.695 222.02C441.831 221.272 443.209 220.898 444.828 220.898C446.343 220.898 447.664 221.229 448.791 221.892C449.918 222.555 450.794 223.502 451.419 224.733C452.044 225.955 452.357 227.413 452.357 229.108V243H446.305V230.188C446.315 228.852 445.974 227.811 445.283 227.062C444.591 226.305 443.64 225.926 442.428 225.926C441.613 225.926 440.893 226.101 440.268 226.452C439.653 226.802 439.17 227.313 438.82 227.986C438.479 228.649 438.304 229.449 438.294 230.386ZM465.165 243.355C463.508 243.355 462.007 242.929 460.663 242.077C459.327 241.215 458.267 239.951 457.481 238.284C456.704 236.608 456.316 234.553 456.316 232.119C456.316 229.619 456.719 227.541 457.523 225.884C458.328 224.217 459.398 222.972 460.734 222.148C462.078 221.314 463.551 220.898 465.151 220.898C466.373 220.898 467.391 221.106 468.205 221.523C469.029 221.93 469.692 222.441 470.194 223.057C470.705 223.663 471.094 224.259 471.359 224.847H471.543V213.909H477.58V243H471.614V239.506H471.359C471.075 240.112 470.672 240.713 470.151 241.31C469.64 241.897 468.972 242.384 468.148 242.773C467.334 243.161 466.34 243.355 465.165 243.355ZM467.083 238.54C468.058 238.54 468.882 238.275 469.555 237.744C470.237 237.205 470.757 236.452 471.117 235.486C471.487 234.52 471.671 233.388 471.671 232.091C471.671 230.794 471.491 229.667 471.131 228.71C470.772 227.754 470.251 227.015 469.569 226.494C468.887 225.973 468.058 225.713 467.083 225.713C466.089 225.713 465.251 225.983 464.569 226.523C463.887 227.062 463.371 227.811 463.021 228.767C462.67 229.723 462.495 230.831 462.495 232.091C462.495 233.36 462.67 234.482 463.021 235.457C463.38 236.423 463.897 237.181 464.569 237.73C465.251 238.27 466.089 238.54 467.083 238.54ZM488.777 243.412C487.385 243.412 486.144 243.17 485.055 242.688C483.966 242.195 483.105 241.471 482.47 240.514C481.845 239.548 481.533 238.346 481.533 236.906C481.533 235.694 481.755 234.676 482.2 233.852C482.645 233.028 483.251 232.366 484.018 231.864C484.786 231.362 485.657 230.983 486.632 230.727C487.617 230.472 488.649 230.292 489.729 230.188C490.998 230.055 492.02 229.932 492.797 229.818C493.573 229.695 494.137 229.515 494.487 229.278C494.838 229.042 495.013 228.691 495.013 228.227V228.142C495.013 227.242 494.729 226.546 494.161 226.054C493.602 225.562 492.806 225.315 491.774 225.315C490.685 225.315 489.819 225.557 489.175 226.04C488.531 226.513 488.105 227.11 487.896 227.83L482.3 227.375C482.584 226.049 483.143 224.903 483.976 223.938C484.809 222.962 485.884 222.214 487.2 221.693C488.526 221.163 490.06 220.898 491.803 220.898C493.015 220.898 494.175 221.04 495.283 221.324C496.4 221.608 497.39 222.048 498.251 222.645C499.123 223.241 499.809 224.009 500.311 224.946C500.813 225.874 501.064 226.987 501.064 228.284V243H495.325V239.974H495.155C494.804 240.656 494.336 241.258 493.749 241.778C493.161 242.29 492.456 242.692 491.632 242.986C490.808 243.27 489.857 243.412 488.777 243.412ZM490.51 239.236C491.4 239.236 492.186 239.061 492.868 238.71C493.55 238.35 494.085 237.867 494.473 237.261C494.861 236.655 495.055 235.969 495.055 235.202V232.886C494.866 233.009 494.606 233.123 494.274 233.227C493.952 233.322 493.588 233.412 493.18 233.497C492.773 233.573 492.366 233.644 491.959 233.71C491.552 233.767 491.182 233.819 490.851 233.866C490.141 233.971 489.52 234.136 488.99 234.364C488.46 234.591 488.048 234.899 487.754 235.287C487.461 235.666 487.314 236.139 487.314 236.707C487.314 237.531 487.612 238.161 488.209 238.597C488.815 239.023 489.582 239.236 490.51 239.236ZM521.067 230.386V243H515.016V221.182H520.783V225.031H521.039C521.522 223.762 522.332 222.759 523.468 222.02C524.604 221.272 525.982 220.898 527.602 220.898C529.117 220.898 530.438 221.229 531.565 221.892C532.692 222.555 533.567 223.502 534.192 224.733C534.817 225.955 535.13 227.413 535.13 229.108V243H529.079V230.188C529.088 228.852 528.747 227.811 528.056 227.062C527.365 226.305 526.413 225.926 525.201 225.926C524.387 225.926 523.667 226.101 523.042 226.452C522.426 226.802 521.943 227.313 521.593 227.986C521.252 228.649 521.077 229.449 521.067 230.386ZM546.121 243.412C544.729 243.412 543.488 243.17 542.399 242.688C541.31 242.195 540.448 241.471 539.814 240.514C539.189 239.548 538.876 238.346 538.876 236.906C538.876 235.694 539.099 234.676 539.544 233.852C539.989 233.028 540.595 232.366 541.362 231.864C542.129 231.362 543 230.983 543.976 230.727C544.961 230.472 545.993 230.292 547.072 230.188C548.341 230.055 549.364 229.932 550.141 229.818C550.917 229.695 551.481 229.515 551.831 229.278C552.181 229.042 552.357 228.691 552.357 228.227V228.142C552.357 227.242 552.072 226.546 551.504 226.054C550.946 225.562 550.15 225.315 549.118 225.315C548.029 225.315 547.162 225.557 546.518 226.04C545.875 226.513 545.448 227.11 545.24 227.83L539.643 227.375C539.928 226.049 540.486 224.903 541.32 223.938C542.153 222.962 543.228 222.214 544.544 221.693C545.87 221.163 547.404 220.898 549.146 220.898C550.358 220.898 551.518 221.04 552.626 221.324C553.744 221.608 554.733 222.048 555.595 222.645C556.466 223.241 557.153 224.009 557.655 224.946C558.157 225.874 558.408 226.987 558.408 228.284V243H552.669V239.974H552.499C552.148 240.656 551.679 241.258 551.092 241.778C550.505 242.29 549.8 242.692 548.976 242.986C548.152 243.27 547.2 243.412 546.121 243.412ZM547.854 239.236C548.744 239.236 549.53 239.061 550.212 238.71C550.893 238.35 551.429 237.867 551.817 237.261C552.205 236.655 552.399 235.969 552.399 235.202V232.886C552.21 233.009 551.949 233.123 551.618 233.227C551.296 233.322 550.931 233.412 550.524 233.497C550.117 233.573 549.71 233.644 549.303 233.71C548.895 233.767 548.526 233.819 548.195 233.866C547.484 233.971 546.864 234.136 546.334 234.364C545.804 234.591 545.392 234.899 545.098 235.287C544.804 235.666 544.658 236.139 544.658 236.707C544.658 237.531 544.956 238.161 545.553 238.597C546.159 239.023 546.926 239.236 547.854 239.236ZM545.311 218.497L541.945 218.455C541.945 216.646 542.39 215.259 543.28 214.293C544.179 213.327 545.273 212.839 546.561 212.83C547.224 212.83 547.792 212.938 548.266 213.156C548.749 213.365 549.179 213.611 549.558 213.895C549.946 214.179 550.316 214.43 550.666 214.648C551.017 214.856 551.395 214.96 551.803 214.96C552.352 214.951 552.768 214.747 553.053 214.349C553.346 213.942 553.493 213.412 553.493 212.759L556.803 212.858C556.784 214.648 556.329 216.03 555.439 217.006C554.549 217.972 553.464 218.459 552.186 218.469C551.476 218.469 550.879 218.365 550.396 218.156C549.923 217.938 549.506 217.692 549.146 217.418C548.786 217.134 548.436 216.883 548.095 216.665C547.754 216.447 547.371 216.338 546.945 216.338C546.452 216.338 546.054 216.532 545.751 216.92C545.458 217.309 545.311 217.834 545.311 218.497ZM572.96 243.426C570.754 243.426 568.846 242.957 567.236 242.02C565.635 241.073 564.4 239.757 563.528 238.071C562.657 236.376 562.222 234.411 562.222 232.176C562.222 229.922 562.657 227.953 563.528 226.267C564.4 224.572 565.635 223.256 567.236 222.318C568.846 221.371 570.754 220.898 572.96 220.898C575.167 220.898 577.07 221.371 578.67 222.318C580.28 223.256 581.521 224.572 582.392 226.267C583.263 227.953 583.699 229.922 583.699 232.176C583.699 234.411 583.263 236.376 582.392 238.071C581.521 239.757 580.28 241.073 578.67 242.02C577.07 242.957 575.167 243.426 572.96 243.426ZM572.989 238.739C573.992 238.739 574.83 238.455 575.503 237.886C576.175 237.309 576.682 236.523 577.023 235.528C577.373 234.534 577.548 233.402 577.548 232.134C577.548 230.865 577.373 229.733 577.023 228.739C576.682 227.744 576.175 226.958 575.503 226.381C574.83 225.803 573.992 225.514 572.989 225.514C571.975 225.514 571.123 225.803 570.432 226.381C569.75 226.958 569.234 227.744 568.884 228.739C568.543 229.733 568.372 230.865 568.372 232.134C568.372 233.402 568.543 234.534 568.884 235.528C569.234 236.523 569.75 237.309 570.432 237.886C571.123 238.455 571.975 238.739 572.989 238.739ZM608.624 221.182V225.727H595.158V221.182H608.624ZM598.241 243V219.605C598.241 218.024 598.549 216.712 599.164 215.67C599.789 214.629 600.641 213.848 601.721 213.327C602.8 212.806 604.027 212.545 605.4 212.545C606.328 212.545 607.175 212.616 607.942 212.759C608.719 212.901 609.297 213.028 609.675 213.142L608.596 217.688C608.359 217.612 608.066 217.541 607.715 217.474C607.374 217.408 607.024 217.375 606.664 217.375C605.774 217.375 605.154 217.583 604.803 218C604.453 218.407 604.278 218.98 604.278 219.719V243H598.241ZM621.398 243.426C619.191 243.426 617.283 242.957 615.673 242.02C614.073 241.073 612.837 239.757 611.966 238.071C611.095 236.376 610.659 234.411 610.659 232.176C610.659 229.922 611.095 227.953 611.966 226.267C612.837 224.572 614.073 223.256 615.673 222.318C617.283 221.371 619.191 220.898 621.398 220.898C623.604 220.898 625.508 221.371 627.108 222.318C628.718 223.256 629.958 224.572 630.83 226.267C631.701 227.953 632.136 229.922 632.136 232.176C632.136 234.411 631.701 236.376 630.83 238.071C629.958 239.757 628.718 241.073 627.108 242.02C625.508 242.957 623.604 243.426 621.398 243.426ZM621.426 238.739C622.43 238.739 623.268 238.455 623.94 237.886C624.613 237.309 625.119 236.523 625.46 235.528C625.811 234.534 625.986 233.402 625.986 232.134C625.986 230.865 625.811 229.733 625.46 228.739C625.119 227.744 624.613 226.958 623.94 226.381C623.268 225.803 622.43 225.514 621.426 225.514C620.413 225.514 619.561 225.803 618.869 226.381C618.188 226.958 617.671 227.744 617.321 228.739C616.98 229.733 616.81 230.865 616.81 232.134C616.81 233.402 616.98 234.534 617.321 235.528C617.671 236.523 618.188 237.309 618.869 237.886C619.561 238.455 620.413 238.739 621.426 238.739ZM636.071 243V221.182H642.122V243H636.071ZM639.111 218.369C638.211 218.369 637.439 218.071 636.795 217.474C636.161 216.868 635.844 216.144 635.844 215.301C635.844 214.468 636.161 213.753 636.795 213.156C637.439 212.55 638.211 212.247 639.111 212.247C640.01 212.247 640.777 212.55 641.412 213.156C642.056 213.753 642.378 214.468 642.378 215.301C642.378 216.144 642.056 216.868 641.412 217.474C640.777 218.071 640.01 218.369 639.111 218.369ZM666.085 243.426C663.85 243.426 661.928 242.953 660.318 242.006C658.718 241.049 657.487 239.723 656.625 238.028C655.773 236.333 655.347 234.383 655.347 232.176C655.347 229.941 655.777 227.981 656.639 226.295C657.51 224.6 658.746 223.279 660.347 222.332C661.947 221.376 663.85 220.898 666.057 220.898C667.96 220.898 669.627 221.243 671.057 221.935C672.487 222.626 673.618 223.597 674.452 224.847C675.285 226.097 675.744 227.564 675.83 229.25H670.119C669.958 228.161 669.532 227.285 668.841 226.622C668.159 225.95 667.264 225.614 666.156 225.614C665.219 225.614 664.4 225.869 663.699 226.381C663.008 226.883 662.468 227.616 662.08 228.582C661.691 229.548 661.497 230.718 661.497 232.091C661.497 233.483 661.687 234.667 662.065 235.642C662.454 236.617 662.998 237.361 663.699 237.872C664.4 238.384 665.219 238.639 666.156 238.639C666.848 238.639 667.468 238.497 668.017 238.213C668.576 237.929 669.035 237.517 669.395 236.977C669.764 236.428 670.006 235.77 670.119 235.003H675.83C675.735 236.67 675.28 238.137 674.466 239.406C673.661 240.666 672.548 241.651 671.128 242.361C669.707 243.071 668.027 243.426 666.085 243.426ZM689.562 243.426C687.355 243.426 685.447 242.957 683.837 242.02C682.237 241.073 681.001 239.757 680.13 238.071C679.259 236.376 678.823 234.411 678.823 232.176C678.823 229.922 679.259 227.953 680.13 226.267C681.001 224.572 682.237 223.256 683.837 222.318C685.447 221.371 687.355 220.898 689.562 220.898C691.768 220.898 693.672 221.371 695.272 222.318C696.882 223.256 698.122 224.572 698.994 226.267C699.865 227.953 700.3 229.922 700.3 232.176C700.3 234.411 699.865 236.376 698.994 238.071C698.122 239.757 696.882 241.073 695.272 242.02C693.672 242.957 691.768 243.426 689.562 243.426ZM689.59 238.739C690.594 238.739 691.432 238.455 692.104 237.886C692.777 237.309 693.283 236.523 693.624 235.528C693.975 234.534 694.15 233.402 694.15 232.134C694.15 230.865 693.975 229.733 693.624 228.739C693.283 227.744 692.777 226.958 692.104 226.381C691.432 225.803 690.594 225.514 689.59 225.514C688.577 225.514 687.725 225.803 687.033 226.381C686.352 226.958 685.835 227.744 685.485 228.739C685.144 229.733 684.974 230.865 684.974 232.134C684.974 233.402 685.144 234.534 685.485 235.528C685.835 236.523 686.352 237.309 687.033 237.886C687.725 238.455 688.577 238.739 689.59 238.739ZM710.286 230.386V243H704.235V221.182H710.002V225.031H710.258C710.741 223.762 711.55 222.759 712.687 222.02C713.823 221.272 715.201 220.898 716.82 220.898C718.335 220.898 719.656 221.229 720.783 221.892C721.91 222.555 722.786 223.502 723.411 224.733C724.036 225.955 724.349 227.413 724.349 229.108V243H718.298V230.188C718.307 228.852 717.966 227.811 717.275 227.062C716.584 226.305 715.632 225.926 714.42 225.926C713.605 225.926 712.886 226.101 712.261 226.452C711.645 226.802 711.162 227.313 710.812 227.986C710.471 228.649 710.296 229.449 710.286 230.386ZM740.723 221.182V225.727H727.584V221.182H740.723ZM730.567 215.955H736.618V236.295C736.618 236.854 736.703 237.29 736.874 237.602C737.044 237.905 737.281 238.118 737.584 238.241C737.896 238.365 738.256 238.426 738.663 238.426C738.947 238.426 739.232 238.402 739.516 238.355C739.8 238.298 740.018 238.256 740.169 238.227L741.121 242.73C740.818 242.825 740.392 242.934 739.842 243.057C739.293 243.189 738.625 243.27 737.839 243.298C736.381 243.355 735.103 243.161 734.004 242.716C732.915 242.271 732.068 241.58 731.462 240.642C730.856 239.705 730.557 238.521 730.567 237.091V215.955ZM744.665 243V221.182H750.531V224.989H750.759C751.156 223.634 751.824 222.612 752.761 221.92C753.699 221.22 754.778 220.869 756 220.869C756.303 220.869 756.63 220.888 756.98 220.926C757.33 220.964 757.638 221.016 757.903 221.082V226.452C757.619 226.366 757.226 226.291 756.724 226.224C756.223 226.158 755.763 226.125 755.347 226.125C754.456 226.125 753.661 226.319 752.96 226.707C752.269 227.086 751.72 227.616 751.312 228.298C750.915 228.98 750.716 229.766 750.716 230.656V243H744.665ZM766.629 243.412C765.237 243.412 763.996 243.17 762.907 242.688C761.818 242.195 760.956 241.471 760.322 240.514C759.697 239.548 759.384 238.346 759.384 236.906C759.384 235.694 759.607 234.676 760.052 233.852C760.497 233.028 761.103 232.366 761.87 231.864C762.637 231.362 763.508 230.983 764.484 230.727C765.469 230.472 766.501 230.292 767.58 230.188C768.849 230.055 769.872 229.932 770.648 229.818C771.425 229.695 771.988 229.515 772.339 229.278C772.689 229.042 772.864 228.691 772.864 228.227V228.142C772.864 227.242 772.58 226.546 772.012 226.054C771.453 225.562 770.658 225.315 769.626 225.315C768.537 225.315 767.67 225.557 767.026 226.04C766.382 226.513 765.956 227.11 765.748 227.83L760.151 227.375C760.435 226.049 760.994 224.903 761.827 223.938C762.661 222.962 763.736 222.214 765.052 221.693C766.378 221.163 767.912 220.898 769.654 220.898C770.866 220.898 772.026 221.04 773.134 221.324C774.252 221.608 775.241 222.048 776.103 222.645C776.974 223.241 777.661 224.009 778.163 224.946C778.665 225.874 778.915 226.987 778.915 228.284V243H773.177V239.974H773.006C772.656 240.656 772.187 241.258 771.6 241.778C771.013 242.29 770.308 242.692 769.484 242.986C768.66 243.27 767.708 243.412 766.629 243.412ZM768.362 239.236C769.252 239.236 770.038 239.061 770.719 238.71C771.401 238.35 771.936 237.867 772.325 237.261C772.713 236.655 772.907 235.969 772.907 235.202V232.886C772.718 233.009 772.457 233.123 772.126 233.227C771.804 233.322 771.439 233.412 771.032 233.497C770.625 233.573 770.218 233.644 769.81 233.71C769.403 233.767 769.034 233.819 768.702 233.866C767.992 233.971 767.372 234.136 766.842 234.364C766.311 234.591 765.899 234.899 765.606 235.287C765.312 235.666 765.165 236.139 765.165 236.707C765.165 237.531 765.464 238.161 766.06 238.597C766.666 239.023 767.433 239.236 768.362 239.236ZM795.215 221.182V225.727H782.076V221.182H795.215ZM785.059 215.955H791.11V236.295C791.11 236.854 791.195 237.29 791.366 237.602C791.536 237.905 791.773 238.118 792.076 238.241C792.388 238.365 792.748 238.426 793.156 238.426C793.44 238.426 793.724 238.402 794.008 238.355C794.292 238.298 794.51 238.256 794.661 238.227L795.613 242.73C795.31 242.825 794.884 242.934 794.335 243.057C793.785 243.189 793.118 243.27 792.332 243.298C790.873 243.355 789.595 243.161 788.496 242.716C787.407 242.271 786.56 241.58 785.954 240.642C785.348 239.705 785.049 238.521 785.059 237.091V215.955ZM805.379 243.412C803.987 243.412 802.746 243.17 801.657 242.688C800.568 242.195 799.706 241.471 799.072 240.514C798.447 239.548 798.134 238.346 798.134 236.906C798.134 235.694 798.357 234.676 798.802 233.852C799.247 233.028 799.853 232.366 800.62 231.864C801.387 231.362 802.258 230.983 803.234 230.727C804.219 230.472 805.251 230.292 806.33 230.188C807.599 230.055 808.622 229.932 809.398 229.818C810.175 229.695 810.738 229.515 811.089 229.278C811.439 229.042 811.614 228.691 811.614 228.227V228.142C811.614 227.242 811.33 226.546 810.762 226.054C810.203 225.562 809.408 225.315 808.376 225.315C807.287 225.315 806.42 225.557 805.776 226.04C805.132 226.513 804.706 227.11 804.498 227.83L798.901 227.375C799.185 226.049 799.744 224.903 800.577 223.938C801.411 222.962 802.486 222.214 803.802 221.693C805.128 221.163 806.662 220.898 808.404 220.898C809.616 220.898 810.776 221.04 811.884 221.324C813.002 221.608 813.991 222.048 814.853 222.645C815.724 223.241 816.411 224.009 816.913 224.946C817.415 225.874 817.665 226.987 817.665 228.284V243H811.927V239.974H811.756C811.406 240.656 810.937 241.258 810.35 241.778C809.763 242.29 809.058 242.692 808.234 242.986C807.41 243.27 806.458 243.412 805.379 243.412ZM807.112 239.236C808.002 239.236 808.788 239.061 809.469 238.71C810.151 238.35 810.686 237.867 811.075 237.261C811.463 236.655 811.657 235.969 811.657 235.202V232.886C811.468 233.009 811.207 233.123 810.876 233.227C810.554 233.322 810.189 233.412 809.782 233.497C809.375 233.573 808.968 233.644 808.56 233.71C808.153 233.767 807.784 233.819 807.452 233.866C806.742 233.971 806.122 234.136 805.592 234.364C805.061 234.591 804.649 234.899 804.356 235.287C804.062 235.666 803.915 236.139 803.915 236.707C803.915 237.531 804.214 238.161 804.81 238.597C805.416 239.023 806.183 239.236 807.112 239.236ZM830.4 243.355C828.743 243.355 827.242 242.929 825.897 242.077C824.562 241.215 823.501 239.951 822.715 238.284C821.939 236.608 821.55 234.553 821.55 232.119C821.55 229.619 821.953 227.541 822.758 225.884C823.563 224.217 824.633 222.972 825.968 222.148C827.313 221.314 828.785 220.898 830.386 220.898C831.607 220.898 832.625 221.106 833.44 221.523C834.263 221.93 834.926 222.441 835.428 223.057C835.94 223.663 836.328 224.259 836.593 224.847H836.778V213.909H842.815V243H836.849V239.506H836.593C836.309 240.112 835.906 240.713 835.386 241.31C834.874 241.897 834.207 242.384 833.383 242.773C832.568 243.161 831.574 243.355 830.4 243.355ZM832.317 238.54C833.293 238.54 834.117 238.275 834.789 237.744C835.471 237.205 835.992 236.452 836.352 235.486C836.721 234.52 836.906 233.388 836.906 232.091C836.906 230.794 836.726 229.667 836.366 228.71C836.006 227.754 835.485 227.015 834.803 226.494C834.121 225.973 833.293 225.713 832.317 225.713C831.323 225.713 830.485 225.983 829.803 226.523C829.121 227.062 828.605 227.811 828.255 228.767C827.905 229.723 827.729 230.831 827.729 232.091C827.729 233.36 827.905 234.482 828.255 235.457C828.615 236.423 829.131 237.181 829.803 237.73C830.485 238.27 831.323 238.54 832.317 238.54ZM857.648 243.426C855.441 243.426 853.533 242.957 851.923 242.02C850.323 241.073 849.087 239.757 848.216 238.071C847.345 236.376 846.909 234.411 846.909 232.176C846.909 229.922 847.345 227.953 848.216 226.267C849.087 224.572 850.323 223.256 851.923 222.318C853.533 221.371 855.441 220.898 857.648 220.898C859.854 220.898 861.758 221.371 863.358 222.318C864.968 223.256 866.208 224.572 867.08 226.267C867.951 227.953 868.386 229.922 868.386 232.176C868.386 234.411 867.951 236.376 867.08 238.071C866.208 239.757 864.968 241.073 863.358 242.02C861.758 242.957 859.854 243.426 857.648 243.426ZM857.676 238.739C858.68 238.739 859.518 238.455 860.19 237.886C860.863 237.309 861.369 236.523 861.71 235.528C862.061 234.534 862.236 233.402 862.236 232.134C862.236 230.865 862.061 229.733 861.71 228.739C861.369 227.744 860.863 226.958 860.19 226.381C859.518 225.803 858.68 225.514 857.676 225.514C856.663 225.514 855.811 225.803 855.119 226.381C854.438 226.958 853.921 227.744 853.571 228.739C853.23 229.733 853.06 230.865 853.06 232.134C853.06 233.402 853.23 234.534 853.571 235.528C853.921 236.523 854.438 237.309 855.119 237.886C855.811 238.455 856.663 238.739 857.676 238.739Z" fill="black"/>
</svg>
